{"title":"Kick 2014 Hindi 720p  BRRip X264 AC3 5.1...Hon3y","uid":11179513,"size":3231810268,"categoryP":"video","categoryS":"hd___movies","magnet":"?xt=urn:btih:8f7c5de359f7486e57e453c5750a3089fa1671b6&amp;dn=Kick+2014+Hindi+720p++BRRip+X264+AC3+5.1...Hon3y&amp;tr=udp%3A%2F%2Ftracker.openbittorrent.com%3A80&amp;tr=udp%3A%2F%2Fopen.demonii.com%3A1337&amp;tr=udp%3A%2F%2Ftracker.coppersurfer.tk%3A6969&amp;tr=udp%3A%2F%2Fexodus.desync.com%3A6969","seeders":8,"leechers":5,"uploader":"honey8ee","files":4,"time":1412845967,"description":"Encoded By Bh@iyo888@Hon3yHD\n\n\nSource                                   : Thanks Telly\nFormat                                   : Matroska\nFormat version                           : Version 4 / Version 2\nFile size                                : 3.00 GiB\nDuration                                 : 2h 26mn\nOverall bit rate                         : 2 921 Kbps\nMovie name                               : Kick 2014 Hindi 720p  BRRip X264 AC3 5.1...Hon3y\n\nVideo\nID                                       : 1\nFormat                                   : AVC\nFormat/Info                              : Advanced Video Codec\nFormat profile                           : &lt;a class=&quot;__cf_email__&quot; href=&quot;/cdn-cgi/l/email-protection&quot; data-cfemail=&quot;0e466769664e423a203f&quot;&gt;[email&amp;#160;protected]&lt;/a&gt;&lt;script cf-hash='f9e31' type=&quot;text/javascript&quot;&gt;\n/* &lt;![CDATA[ */!function(){try{var t=&quot;currentScript&quot;in document?document.currentScript:function(){for(var t=document.getElementsByTagName(&quot;script&quot;),e=t.length;e--;)if(t[e].getAttribute(&quot;cf-hash&quot;))return t[e]}();if(t&amp;&amp;t.previousSibling){var e,r,n,i,c=t.previousSibling,a=c.getAttribute(&quot;data-cfemail&quot;);if(a){for(e=&quot;&quot;,r=parseInt(a.substr(0,2),16),n=2;a.length-n;n+=2)i=parseInt(a.substr(n,2),16)^r,e+=String.fromCharCode(i);e=document.createTextNode(e),c.parentNode.replaceChild(e,c)}}}catch(u){}}();/* ]]&gt; */&lt;/script&gt;\nFormat settings, CABAC                   : Yes\nFormat settings, ReFrames                : 12 frames\nCodec ID                                 : V_MPEG4/ISO/AVC\nDuration                                 : 2h 26mn\nBit rate                                 : 2 473 Kbps\nWidth                                    : 1 280 pixels\nHeight                                   : 544 pixels\nDisplay aspect ratio                     : 2.35:1\nFrame rate mode                          : Constant\nFrame rate                               : 23.976 fps\nColor space                              : YUV\nChroma subsampling                       : 4:2:0\nBit depth                                : 8 bits\nScan type                                : Progressive\nBits/(Pixel*Frame)                       : 0.148\nStream size                              : 2.48 GiB (83%)\nTitle                                    : Bh@iyo888@Hon3yHD\nWriting library                          : x264 core \n\nAudio\nID                                       : 2\nFormat                                   : AC-3\nFormat/Info                              : Audio Coding 3\nMode extension                           : CM (complete main)\nFormat settings, Endianness              : Big\nCodec ID                                 : A_AC3\nDuration                                 : 2h 26mn\nBit rate mode                            : Constant\nBit rate                                 : 448 Kbps\nChannel(s)                               : 6 channels\nChannel positions                        : Front: L C R, Side: L R, LFE\nSampling rate                            : 48.0 KHz\nBit depth                                : 16 bits\nCompression mode                         : Lossy\nStream size                              : 471 MiB (15%)\nTitle                                    : Bh@iyo888@Hon3yHD\nLanguage                                 : Hindi\nDefault                                  : Yes\nForced                                   : No\n\nFor Screen shots:\n &lt;a href=&quot;\nhttp://www.hon3yhd.com/index.php?page=torrent-details&amp;id=8f7c5de359f7486e57e453c5750a3089fa1671b6&quot; rel=&quot;nofollow&quot; target=&quot;_NEW&quot;&gt;\nhttp://www.hon3yhd.com/index.php?page=torrent-details&amp;id=8f7c5de359f7486e57e453c5750a3089fa1671b6&lt;/a&gt;","torrent":{"xt":"urn:btih:8f7c5de359f7486e57e453c5750a3089fa1671b6","amp;dn":"Kick+2014+Hindi+720p++BRRip+X264+AC3+5.1...Hon3y","amp;tr":["udp%3A%2F%2Ftracker.openbittorrent.com%3A80","udp%3A%2F%2Fopen.demonii.com%3A1337","udp%3A%2F%2Ftracker.coppersurfer.tk%3A6969","udp%3A%2F%2Fexodus.desync.com%3A6969"],"infoHash":"8f7c5de359f7486e57e453c5750a3089fa1671b6","infoHashBuffer":{"type":"Buffer","data":[143,124,93,227,89,247,72,110,87,228,83,197,117,10,48,137,250,22,113,182]},"announce":[],"urlList":[]}}